# xmcd
#
# Track frame offsets:
#	150
#	20325
#	42065
#	62384
#	84542
#	104193
#	125700
#	142581
#	160725
#	177918
#	193994
#	213476
#	232659
#	252893
#	279395
#	295306
#	315283
#
# Disc length: 4449 seconds
# Revision: 0
# Processed by: cddbd v1.5.2PL0 Copyright (c) Steve Scherf et al.
# Submitted via: dBpowerAMP V12.0
#
DISCID=e7115f11
DTITLE=Various Artist - The Magic of David Foster and Friends
DYEAR=1998
DGENRE=Pop
TTITLE0=Celine Dion and Bocelli - The Prayer
TTITLE1=Josh Groban - You Raise Me Up
TTITLE2=Toni Braxton - Un-Break My Heart
TTITLE3=Barbra Streisand - Somewhere
TTITLE4=Peter Cetera - Glory of Love
TTITLE5=Chaka Khan - Through the Fire
TTITLE6=Cheryl Lynn - Got to Be Real
TTITLE7=James Ingram - Whatever We Imagine
TTITLE8=Seal - If You Don't Know Me by Now
TTITLE9=Brandy - Have You Ever
TTITLE10=All 4 One - I Can Love You Like That
TTITLE11=Al Jarreau - Mornin'
TTITLE12=Peter Cincotti - Goodbye Philadelphia
TTITLE13=Katherine Jenkins - Angel
TTITLE14=Renee Olstead - A Love That Will Last
TTITLE15=Jordan Hill - Remember Me This Way
TTITLE16=David Foster and Olivia Newton John - The Best of Me
EXTD=
EXTT0=
EXTT1=
EXTT2=
EXTT3=
EXTT4=
EXTT5=
EXTT6=
EXTT7=
EXTT8=
EXTT9=
EXTT10=
EXTT11=
EXTT12=
EXTT13=
EXTT14=
EXTT15=
EXTT16=
PLAYORDER=
